<?xml version="1.0" encoding="UTF-8"?><svg id="Layer_2" xmlns="http://www.w3.org/2000/svg" viewBox="0 0 1394.58 1231.1"><defs><style>.cls-1{fill:#fff;}</style></defs><g id="Layer_2-2"><path class="cls-1" d="M697.5,1231.1c-225.69,0-451.39,0-677.08-.06-3.73,0-7.7-.18-11.15-1.43-6.31-2.28-10.17-9.22-9.1-14.79,1.36-7.08,6.83-12.25,14.08-12.41,12.89-.28,25.79-.2,38.69-.14,12.53,.05,10.46-.24,10.47-10.42,.06-85.64,.12-171.29-.05-256.93-.03-13.18,4.21-23.86,14.88-31.74,6.78-5.01,14.61-6.74,22.85-6.75,41-.06,82.01-.07,123.01-.07,74.57,0,149.14,.02,223.71,0,9.28,0,9.55,.17,9.55,9.33,0,95.07,0,190.13,0,285.2,0,2.15,.11,4.3,.02,6.45-.16,3.67,1.68,5,5.15,4.94,5.45-.1,10.91-.02,16.37-.05,6.96-.04,7-.05,7.01-6.82,.02-25.79,0-51.58,0-77.38,0-145.83,0-291.65,0-437.48,0-35.88-.02-71.76,0-107.63,0-12.65,3.72-23.73,14.02-31.82,7.16-5.63,15.46-7.77,24.47-7.76,32.24,.03,64.48,0,96.73,0,83,0,166.01,.03,249.01,0,12.98,0,23.91,4.2,31.81,14.88,5.09,6.88,7.18,14.81,7.19,23.23,.05,67.13,.02,134.25,.02,201.38,0,102.84,0,205.67-.01,308.51,0,37.7-.02,75.39-.01,113.09,0,7.83,.03,7.83,8.01,7.84,4.46,0,8.93,.02,13.39,0,6.42-.03,6.83-.37,6.83-6.68,.02-25.96,0-51.92,0-77.87,0-126.48-.01-252.96,0-379.44,0-8.53,.12-8.61,8.61-8.61,89.78,0,179.56,0,269.34,0,25.96,0,51.92,.11,77.87-.04,12.02-.07,22.44,3.19,30.29,12.78,6.17,7.53,8.11,16.26,8.06,25.84-.17,30.26-.07,60.51-.07,90.77,0,112.1,0,224.2,0,336.29,0,6.75,.15,6.9,6.96,6.92,13.56,.04,27.12-.03,40.67,.09,6.39,.06,11.63,2.44,14.28,8.69,3.9,9.19-1.86,18.87-11.82,19.93-1.96,.21-3.96,.13-5.95,.13-205.19,0-410.38,0-615.57,0-20.83,0-41.67,0-62.5,0v.03ZM560.35,42.48c-7.16,2.92-9.08,9.63-9.95,16.48-1.24,9.66-1.95,19.39-3.06,29.07-.8,6.98-4.63,12.16-11.06,14.67-8.56,3.36-17.5,5.75-26.11,9.02-16.54,6.27-18.74,10.96-15.23,26.77,1.34,6.03,4.74,11.57,6.76,17.49,5.36,15.67,7.99,20.95-6.46,35.02-5.68,5.52-11.85,10.6-17.03,16.55-7.94,9.11-7.54,16.81,.42,25.96,1.62,1.86,3.36,3.64,5.13,5.36,4.98,4.81,10.1,9.49,15.01,14.37,7.01,6.97,9.02,15.01,5.2,24.42-3.04,7.47-6.14,14.96-8.44,22.68-4.75,15.89-2.06,21.75,11.13,26.88,8.11,3.16,16.56,5.44,24.79,8.33,9,3.16,15.48,8.52,16.25,18.94,.65,8.73,1.49,17.45,2.58,26.13,1.8,14.4,7.68,20.12,22.64,19.13,.82-.05,1.65-.11,2.47-.23,7.51-1.12,15-2.45,22.54-3.35,9.55-1.15,17.68,1.31,22.97,10.1,4.93,8.18,9.64,16.5,14.95,24.43,6.8,10.17,14.88,11.92,25.48,5.76,5.83-3.39,11.42-7.21,16.98-11.04,15.28-10.53,22.84-10.57,38.21-.13,6,4.07,11.96,8.22,18.18,11.93,8.09,4.83,15.76,3.89,21.69-3.42,4.63-5.7,8.22-12.26,12.03-18.59,9.79-16.27,13.15-21.23,33.9-18.25,7.52,1.08,15.03,2.37,22.59,2.87,7.31,.48,16.2-2.41,18-12.01,.67-3.54,1.56-7.06,1.99-10.63,1.03-8.36,1.7-16.76,2.79-25.11,.82-6.3,4.12-11.17,10.05-13.71,5.27-2.26,10.72-4.09,16.13-6.03,5.73-2.06,11.66-3.66,17.22-6.1,8.78-3.85,11.7-8.53,9.83-18.14-1.52-7.83-4.66-15.38-7.41-22.93-5.92-16.28-8.06-22.06,6.44-35.74,4.92-4.64,10.05-9.08,14.62-14.05,2.83-3.09,5.55-6.71,6.96-10.59,3.04-8.41-1.9-14.65-7.33-20.18-5.66-5.77-11.85-11.02-17.61-16.69-7.27-7.15-9.63-15.44-5.59-25.26,3.07-7.45,6.28-14.92,8.5-22.65,4.31-14.98,2.31-21.15-9.63-25.97-7.92-3.2-16.16-5.6-24.29-8.25-10.14-3.3-17.62-8.78-18.45-20.54-.63-8.89-1.33-17.81-2.63-26.62-1.82-12.33-7.02-18.41-19.84-17.71-4.6,.25-9.15,1.22-13.75,1.61-7.55,.65-15.16,1.76-22.67,1.34-3.66-.2-7.63-2.85-10.59-5.4-2.91-2.51-4.77-6.25-6.99-9.52-5.53-8.14-10.58-16.65-16.66-24.35-3.55-4.49-9.16-6.12-14.77-2.91-7.97,4.56-16.01,9.07-23.61,14.2-14.26,9.61-22.08,9.77-36.13,.03-5.82-4.04-11.53-8.35-17.75-11.68-9.46-5.07-14.79-7.45-24.19,3.71-4.3,5.1-7.87,11.03-10.79,17.06-7.05,14.55-17.19,22.55-34.22,18.88-6.92-1.49-14-2.22-21.78-3.41-3.08,.55-7.02,.62-10.42,2Zm238.55,177.99c-9.49,9.41-19.05,18.76-28.75,27.96-2.82,2.68-3.7,5.22-2.85,9.17,2.67,12.41,5.28,24.86,7.09,37.41,2.27,15.79-5.16,26.97-20.73,30.18-5.18,1.07-11.63-.43-16.61-2.72-12.1-5.55-23.68-12.22-35.44-18.5-3.65-1.95-7.01-1.94-10.69,.19-10.82,6.27-21.68,12.48-32.69,18.4-8.23,4.43-16.89,4.83-25.06,0-8.73-5.15-13.9-12.97-12.9-23.36,1.03-10.66,2.53-21.33,4.78-31.79,3.69-17.17,3.99-17.07-9.15-28.84-6.64-5.95-13.31-11.87-19.69-18.09-14.02-13.68-10.06-35.79,8.09-43.03,6.15-2.45,13.21-2.75,19.89-3.75,9.14-1.36,18.4-2.06,27.43-3.89,2.6-.53,5.44-3.58,6.74-6.19,5.42-10.89,10.34-22.04,15.36-33.13,4.56-10.07,12.89-14.38,23.33-14.54,10.22-.16,18.81,3.73,23.68,13.29,6.27,12.32,12.05,24.89,18.44,37.14,1.07,2.05,4.03,3.98,6.38,4.35,12.88,2.04,25.83,3.59,38.76,5.28,13.69,1.78,22.53,11.73,22.59,26.45,.52,6.69-2.78,12.82-8.01,18Z"/></g></svg>